<svg width="30" height="29" viewBox="0 0 30 29" fill="none" xmlns="http://www.w3.org/2000/svg">
<path d="M4.5 1C7.19854 5.46211 9.29846 7.97407 15 12.5C20.4414 7.29802 22.469 4.80334 24.5 1L29 5C23.2265 8.08151 20.7013 10.2213 17 14.5C22.1149 20.1239 24.7786 22.5121 27 24L24.5 27.5C22.1879 24.3116 20.1894 22.0617 15 17C10.7205 19.5256 8.50856 22.3612 4.63827 27.3227L4.5 27.5L1 24C7.85995 20.6888 9.89472 18.4994 13 14.5C8.94671 10.1764 6.289 8.1274 1 5L4.5 1Z" fill="#EF0909" stroke="#EF0909"/>
</svg>
